<svg width="72" height="72" viewBox="0 0 72 72" fill="none" xmlns="http://www.w3.org/2000/svg">
<path d="M44.4602 12.78C43.8644 13.8471 43.3335 14.9491 42.8702 16.08C38.3185 15.3602 33.682 15.3602 29.1302 16.08C28.667 14.9491 28.136 13.8471 27.5402 12.78C23.2526 13.5126 19.0845 14.8246 15.1502 16.68C8.11506 26.8329 4.92455 39.1589 6.15024 51.45C10.735 54.8966 15.8806 57.5253 21.3602 59.22C22.608 57.5718 23.7215 55.8262 24.6902 54C22.9025 53.3409 21.1841 52.5068 19.5602 51.51C20.0056 51.2137 20.4269 50.8827 20.8202 50.52C25.5556 52.801 30.7441 53.9855 36.0002 53.9855C41.2563 53.9855 46.4449 52.801 51.1802 50.52C51.6002 50.88 52.0202 51.21 52.4402 51.51C50.8075 52.499 49.0909 53.3422 47.3102 54.03C48.2388 55.8976 49.3226 57.6839 50.5502 59.37C56.023 57.6811 61.1598 55.0518 65.7302 51.6C66.9854 39.3066 63.7923 26.9706 56.7302 16.83C52.8402 14.9362 48.7133 13.574 44.4602 12.78V12.78ZM26.0402 44.43C24.539 44.3223 23.1379 43.6371 22.131 42.5183C21.1241 41.3996 20.5898 39.9343 20.6402 38.43C20.5822 36.9238 21.1139 35.4543 22.1223 34.3339C23.1307 33.2134 24.5362 32.5304 26.0402 32.43C27.5443 32.5304 28.9498 33.2134 29.9582 34.3339C30.9666 35.4543 31.4983 36.9238 31.4402 38.43C31.4983 39.9363 30.9666 41.4058 29.9582 42.5262C28.9498 43.6466 27.5443 44.3296 26.0402 44.43V44.43ZM45.9602 44.43C44.459 44.3223 43.0579 43.6371 42.051 42.5183C41.0441 41.3996 40.5098 39.9343 40.5602 38.43C40.5022 36.9238 41.0339 35.4543 42.0423 34.3339C43.0507 33.2134 44.4562 32.5304 45.9602 32.43C47.4671 32.523 48.8772 33.2037 49.8871 34.3259C50.897 35.448 51.426 36.9218 51.3602 38.43C51.426 39.9383 50.897 41.4121 49.8871 42.5342C48.8772 43.6563 47.4671 44.3371 45.9602 44.43V44.43Z" fill="#8EFE8D"/>
</svg>
