<svg width="68" height="68" viewBox="0 0 68 68" fill="none" xmlns="http://www.w3.org/2000/svg">
<path d="M27.3982 39.6694C28.9646 39.6694 30.2343 38.3996 30.2343 36.8332C30.2343 35.2669 28.9646 33.9971 27.3982 33.9971C25.8318 33.9971 24.562 35.2669 24.562 36.8332C24.562 38.3996 25.8318 39.6694 27.3982 39.6694Z" fill="black"/>
<path d="M39.9217 43.6078C38.2018 44.8403 36.1128 45.449 34.0001 45.3333C31.8886 45.428 29.8082 44.7982 28.1039 43.5483C27.9567 43.4309 27.7714 43.3719 27.5835 43.3825C27.3955 43.3932 27.2181 43.4728 27.0852 43.6061C26.9522 43.7394 26.8731 43.917 26.8629 44.105C26.8528 44.293 26.9123 44.4781 27.0301 44.6249C29.0417 46.1408 31.5124 46.9171 34.0312 46.8066C36.5461 46.917 39.0205 46.1454 41.0267 44.6249V44.7383C41.1751 44.5903 41.2599 44.3903 41.2631 44.1807C41.2662 43.9712 41.1876 43.7687 41.0437 43.6163C40.9706 43.542 40.8836 43.4829 40.7876 43.4423C40.6917 43.4017 40.5887 43.3804 40.4845 43.3796C40.3803 43.3788 40.277 43.3986 40.1804 43.4377C40.0839 43.4769 39.996 43.5347 39.9217 43.6078V43.6078ZM40.5139 34.1133C39.7624 34.1133 39.0418 34.4118 38.5104 34.9431C37.9791 35.4745 37.6806 36.1952 37.6806 36.9466C37.6806 37.6981 37.9791 38.4187 38.5104 38.9501C39.0418 39.4814 39.7624 39.7799 40.5139 39.7799L40.4912 39.8905C40.5366 39.8961 40.5847 39.8905 40.6357 39.8905C41.3854 39.8595 42.0921 39.5325 42.601 38.9812C43.1098 38.4298 43.3792 37.6992 43.3501 36.9495C43.3504 36.5769 43.2773 36.2079 43.1349 35.8637C42.9925 35.5194 42.7836 35.2066 42.5202 34.9431C42.2568 34.6797 41.944 34.4708 41.5997 34.3284C41.2554 34.186 40.8864 34.1129 40.5139 34.1133V34.1133Z" fill="black"/>
<path d="M33.9998 5.66675C18.357 5.66675 5.6665 18.3516 5.6665 34.0001C5.6665 49.6429 18.357 62.3334 33.9998 62.3334C49.6427 62.3334 62.3332 49.6429 62.3332 34.0001C62.3332 18.3516 49.6427 5.66675 33.9998 5.66675ZM50.6003 37.7684C50.6343 38.1821 50.6343 38.5986 50.6003 39.0122C50.6003 45.3589 43.2082 50.5212 34.082 50.5212C24.9558 50.5212 17.5637 45.3646 17.5637 39.0122C17.5297 38.5983 17.5297 38.1823 17.5637 37.7684C16.9671 37.4947 16.4442 37.083 16.0382 36.5672C15.6322 36.0515 15.3547 35.4465 15.2288 34.8023C15.1028 34.1582 15.132 33.4932 15.3138 32.8626C15.4956 32.2319 15.8249 31.6535 16.2745 31.1752C16.6463 30.7793 17.0925 30.4605 17.5877 30.2371C18.0828 30.0138 18.6171 29.8903 19.1601 29.8737C19.703 29.8572 20.2439 29.9478 20.7517 30.1405C21.2596 30.3332 21.7244 30.6242 22.1197 30.9967C25.384 28.7838 29.2236 27.5726 33.1668 27.5117L35.272 17.6801V17.6687C35.3241 17.4415 35.4637 17.2439 35.6604 17.1188C35.8571 16.9936 36.0952 16.951 36.3232 17.0001L43.262 18.3884C43.6022 17.8058 44.1388 17.3636 44.7757 17.141C45.4126 16.9185 46.1079 16.9302 46.7369 17.1742C47.3658 17.4181 47.8873 17.8783 48.2075 18.4721C48.5278 19.0659 48.6259 19.7543 48.4842 20.4139C48.3426 21.0735 47.9704 21.661 47.4346 22.0709C46.8988 22.4809 46.2345 22.6864 45.5608 22.6506C44.8871 22.6148 44.2483 22.34 43.7589 21.8756C43.2696 21.4113 42.9618 20.7876 42.8908 20.1167L36.8332 18.8417L34.9943 27.6817C38.8907 27.7658 42.6793 28.9762 45.9027 31.1667C46.4786 30.615 47.2017 30.2416 47.9849 30.0913C48.7681 29.941 49.5781 30.0203 50.3173 30.3197C51.0565 30.6191 51.6933 31.1258 52.1512 31.7787C52.6091 32.4317 52.8685 33.2031 52.8982 34.0001C52.9265 35.5952 52.0283 37.0601 50.6003 37.7684Z" fill="#8EFE8D"/>
</svg>
