<svg width="62" height="50" viewBox="0 0 62 50" fill="none" xmlns="http://www.w3.org/2000/svg">
<path d="M55.6303 12.4608C55.6713 13.009 55.6713 13.5541 55.6713 14.0991C55.6713 30.7793 42.8845 50 19.5162 50C12.3167 50 5.62833 47.9295 0 44.3334C1.02219 44.4493 2.00651 44.49 3.06971 44.49C8.78951 44.5038 14.3473 42.6047 18.8473 39.0991C16.1954 39.0514 13.6247 38.1827 11.494 36.6143C9.36341 35.0458 7.77929 32.8558 6.96285 30.3502C7.74842 30.4661 8.53715 30.5444 9.36373 30.5444C10.5026 30.5444 11.6479 30.3878 12.7111 30.1153C9.83305 29.5383 7.24513 27.9894 5.38736 25.732C3.52958 23.4746 2.51664 20.6479 2.52076 17.7327V17.5761C4.21494 18.5127 6.18044 19.0985 8.26267 19.1768C6.51829 18.0259 5.08796 16.4642 4.09928 14.631C3.1106 12.7978 2.59431 10.7501 2.59648 8.67059C2.59648 6.32753 3.2243 4.17868 4.32536 2.30548C7.51855 6.20543 11.5012 9.39595 16.0153 11.6704C20.5294 13.9449 25.4744 15.2525 30.5299 15.5087C30.3343 14.569 30.2144 13.5948 30.2144 12.6175C30.2136 10.9603 30.5417 9.31919 31.1801 7.788C31.8184 6.2568 32.7544 4.86554 33.9346 3.69374C35.1148 2.52193 36.5161 1.59257 38.0583 0.958772C39.6004 0.324977 41.2533 -0.000821887 42.9223 1.55702e-06C46.582 1.55702e-06 49.8852 1.52237 52.2072 3.98446C55.0522 3.43822 57.7805 2.40704 60.2711 0.9366C59.3228 3.85232 57.3363 6.32472 54.6838 7.89062C57.207 7.60487 59.6731 6.94604 62 5.93597C60.2621 8.45163 58.1085 10.6576 55.6303 12.4608V12.4608Z" fill="#8EFE8D"/>
</svg>
